<?xml version="1.0" encoding="UTF-8"?>
<svg width="106px" height="106px" viewBox="0 0 106 106" version="1.1" xmlns="http://www.w3.org/2000/svg" xmlns:xlink="http://www.w3.org/1999/xlink">
    <title>Slice</title>
    <g id="Page-1" stroke="none" stroke-width="1" fill="none" fill-rule="evenodd">
        <rect id="Rectangle" fill="#6784A0" x="0" y="0" width="106" height="106" rx="11"></rect>
        <path d="M24.381,70.66 C26.933,70.66 29.144,70.022 31.014,68.746 C32.2606667,67.8953333 33.2971111,66.8002222 34.1233333,65.4606667 L34.281,65.195 L34.281,66.304 C34.281,67.5770667 34.5876311,68.5722489 35.2008933,69.2895467 L35.337,69.439 C36.041,70.165 37.031,70.528 38.307,70.528 C40.991,70.528 42.333,69.12 42.333,66.304 L42.333,66.304 L42.333,41.356 C42.333,39.948 41.97,38.903 41.244,38.221 C40.518,37.539 39.495,37.198 38.175,37.198 C36.855,37.198 35.843,37.539 35.139,38.221 C34.435,38.903 34.083,39.948 34.083,41.356 L34.083,41.356 L34.083,55.876 C34.083,58.384 33.379,60.397 31.971,61.915 C30.563,63.433 28.759,64.192 26.559,64.192 C24.535,64.192 23.061,63.642 22.137,62.542 C21.213,61.442 20.751,59.748 20.751,57.46 L20.751,57.46 L20.751,41.356 C20.751,39.948 20.388,38.903 19.662,38.221 C18.936,37.539 17.913,37.198 16.593,37.198 C15.273,37.198 14.261,37.539 13.557,38.221 C12.853,38.903 12.501,39.948 12.501,41.356 L12.501,41.356 L12.501,57.328 C12.501,60.276 12.93,62.74 13.788,64.72 C14.646,66.7 15.955,68.185 17.715,69.175 C19.475,70.165 21.697,70.66 24.381,70.66 Z M55.005,82.408 C56.325,82.408 57.348,82.056 58.074,81.352 C58.8,80.648 59.163,79.614 59.163,78.25 L59.163,78.25 L59.163,65.194 L59.2353989,65.3207645 C59.9432992,66.5200997 60.9144681,67.5570859 62.1489058,68.431723 L62.463,68.647 C64.487,69.989 66.841,70.66 69.525,70.66 C72.385,70.66 74.871,69.978 76.983,68.614 C79.095,67.25 80.745,65.303 81.933,62.773 C83.121,60.243 83.715,57.262 83.715,53.83 C83.715,50.354 83.121,47.373 81.933,44.887 C80.745,42.401 79.084,40.476 76.95,39.112 C74.816,37.748 72.341,37.066 69.525,37.066 C66.797,37.066 64.41,37.748 62.364,39.112 C60.9318,40.0668 59.83917,41.2372 59.08611,42.6232 L59.031,42.729 L59.031,41.356 C59.031,40.0829333 58.7243689,39.0973333 58.1111067,38.3992 L57.975,38.254 C57.271,37.55 56.259,37.198 54.939,37.198 C53.663,37.198 52.673,37.55 51.969,38.254 C51.265,38.958 50.913,39.992 50.913,41.356 L50.913,41.356 L50.913,78.25 C50.913,79.614 51.265,80.648 51.969,81.352 C52.673,82.056 53.685,82.408 55.005,82.408 Z M67.215,64.39 C64.751,64.39 62.771,63.499 61.275,61.717 C59.779,59.935 59.031,57.306 59.031,53.83 C59.031,51.498 59.372,49.551 60.054,47.989 C60.736,46.427 61.693,45.261 62.925,44.491 C64.157,43.721 65.587,43.336 67.215,43.336 C69.679,43.336 71.659,44.205 73.155,45.943 C74.651,47.681 75.399,50.31 75.399,53.83 C75.399,56.162 75.058,58.109 74.376,59.671 C73.694,61.233 72.737,62.41 71.505,63.202 C70.273,63.994 68.843,64.39 67.215,64.39 Z M94.473,56.602 C95.265,56.602 95.892,56.338 96.354,55.81 C96.816,55.282 97.069,54.534 97.113,53.566 L97.113,53.566 L99.093,28.354 C99.225,26.726 98.884,25.417 98.07,24.427 C97.256,23.437 96.057,22.942 94.473,22.942 C92.845,22.942 91.613,23.437 90.777,24.427 C89.941,25.417 89.589,26.726 89.721,28.354 L89.721,28.354 L91.701,53.566 C91.789,54.534 92.064,55.282 92.526,55.81 C92.988,56.338 93.637,56.602 94.473,56.602 Z M94.473,70.33 C96.013,70.33 97.212,69.868 98.07,68.944 C98.928,68.02 99.357,66.832 99.357,65.38 C99.357,63.972 98.928,62.817 98.07,61.915 C97.212,61.013 96.013,60.562 94.473,60.562 C92.977,60.562 91.778,61.013 90.876,61.915 C89.974,62.817 89.523,63.972 89.523,65.38 C89.523,66.832 89.974,68.02 90.876,68.944 C91.778,69.868 92.977,70.33 94.473,70.33 Z" id="up!" fill="#FFFFFF" fill-rule="nonzero"></path>
    </g>
</svg>