<?xml version="1.0" encoding="UTF-8"?>
<svg width="212px" height="106px" viewBox="0 0 212 106" version="1.1" xmlns="http://www.w3.org/2000/svg" xmlns:xlink="http://www.w3.org/1999/xlink">
    <title>Slice</title>
    <g id="Page-1" stroke="none" stroke-width="1" fill="none" fill-rule="evenodd">
        <path d="M50.4101562,105.386719 C57.34375,105.386719 63.6186523,104.947591 69.2348633,104.069336 C74.8510742,103.191081 80.3170573,101.850586 85.6328125,100.047852 L85.6328125,100.047852 L85.6328125,50.8886719 L50.2021484,50.8886719 L50.2021484,61.4277344 L73.8457031,61.4277344 L73.8457031,92.4902344 C71.1647135,93.2298177 68.1832682,93.8653971 64.9013672,94.3969727 C61.6194661,94.9285482 57.6904297,95.1943359 53.1142578,95.1943359 C44.008138,95.1943359 36.5660807,93.4609375 30.7880859,89.9941406 C25.0100911,86.5273438 20.757487,81.6622721 18.0302734,75.3989258 C15.3030599,69.1355794 13.9394531,61.7744141 13.9394531,53.3154297 C13.9394531,44.7639974 15.4995117,37.3681641 18.6196289,31.1279297 C21.7397461,24.8876953 26.246582,20.0572917 32.1401367,16.6367188 C38.0336914,13.2161458 45.117513,11.5058594 53.3916016,11.5058594 C58.1988932,11.5058594 62.855957,12.0836589 67.362793,13.2392578 C71.8696289,14.3948568 75.9951172,15.7815755 79.7392578,17.3994141 L79.7392578,17.3994141 L84.2460938,7.13769531 C79.9010417,5.24251302 75.1977539,3.77490234 70.1362305,2.73486328 C65.074707,1.69482422 59.7242839,1.17480469 54.0849609,1.17480469 C43.0836589,1.17480469 33.6655273,3.33577474 25.8305664,7.65771484 C17.9956055,11.9796549 12.0096029,18.0465495 7.87255859,25.8583984 C3.73551432,33.6702474 1.66699219,42.8225911 1.66699219,53.3154297 C1.66699219,64.039388 3.5390625,73.2957357 7.28320313,81.0844727 C11.0273438,88.8732096 16.5164388,94.8707682 23.7504883,99.0771484 C30.9845378,103.283529 39.8710938,105.386719 50.4101562,105.386719 Z" id="G" fill="#02303A" fill-rule="nonzero" class="letter"></path>
        <rect id="Rectangle" fill="#6784A0" x="106" y="0" width="106" height="106" rx="11"></rect>
        <path d="M130.381,70.66 C132.933,70.66 135.144,70.022 137.014,68.746 C138.260667,67.8953333 139.297111,66.8002222 140.123333,65.4606667 L140.281,65.195 L140.281,66.304 C140.281,67.5770667 140.587631,68.5722489 141.200893,69.2895467 L141.337,69.439 C142.041,70.165 143.031,70.528 144.307,70.528 C146.991,70.528 148.333,69.12 148.333,66.304 L148.333,66.304 L148.333,41.356 C148.333,39.948 147.97,38.903 147.244,38.221 C146.518,37.539 145.495,37.198 144.175,37.198 C142.855,37.198 141.843,37.539 141.139,38.221 C140.435,38.903 140.083,39.948 140.083,41.356 L140.083,41.356 L140.083,55.876 C140.083,58.384 139.379,60.397 137.971,61.915 C136.563,63.433 134.759,64.192 132.559,64.192 C130.535,64.192 129.061,63.642 128.137,62.542 C127.213,61.442 126.751,59.748 126.751,57.46 L126.751,57.46 L126.751,41.356 C126.751,39.948 126.388,38.903 125.662,38.221 C124.936,37.539 123.913,37.198 122.593,37.198 C121.273,37.198 120.261,37.539 119.557,38.221 C118.853,38.903 118.501,39.948 118.501,41.356 L118.501,41.356 L118.501,57.328 C118.501,60.276 118.93,62.74 119.788,64.72 C120.646,66.7 121.955,68.185 123.715,69.175 C125.475,70.165 127.697,70.66 130.381,70.66 Z M161.005,82.408 C162.325,82.408 163.348,82.056 164.074,81.352 C164.8,80.648 165.163,79.614 165.163,78.25 L165.163,78.25 L165.163,65.194 L165.235399,65.3207645 C165.943299,66.5200997 166.914468,67.5570859 168.148906,68.431723 L168.463,68.647 C170.487,69.989 172.841,70.66 175.525,70.66 C178.385,70.66 180.871,69.978 182.983,68.614 C185.095,67.25 186.745,65.303 187.933,62.773 C189.121,60.243 189.715,57.262 189.715,53.83 C189.715,50.354 189.121,47.373 187.933,44.887 C186.745,42.401 185.084,40.476 182.95,39.112 C180.816,37.748 178.341,37.066 175.525,37.066 C172.797,37.066 170.41,37.748 168.364,39.112 C166.9318,40.0668 165.83917,41.2372 165.08611,42.6232 L165.031,42.729 L165.031,41.356 C165.031,40.0829333 164.724369,39.0973333 164.111107,38.3992 L163.975,38.254 C163.271,37.55 162.259,37.198 160.939,37.198 C159.663,37.198 158.673,37.55 157.969,38.254 C157.265,38.958 156.913,39.992 156.913,41.356 L156.913,41.356 L156.913,78.25 C156.913,79.614 157.265,80.648 157.969,81.352 C158.673,82.056 159.685,82.408 161.005,82.408 Z M173.215,64.39 C170.751,64.39 168.771,63.499 167.275,61.717 C165.779,59.935 165.031,57.306 165.031,53.83 C165.031,51.498 165.372,49.551 166.054,47.989 C166.736,46.427 167.693,45.261 168.925,44.491 C170.157,43.721 171.587,43.336 173.215,43.336 C175.679,43.336 177.659,44.205 179.155,45.943 C180.651,47.681 181.399,50.31 181.399,53.83 C181.399,56.162 181.058,58.109 180.376,59.671 C179.694,61.233 178.737,62.41 177.505,63.202 C176.273,63.994 174.843,64.39 173.215,64.39 Z M200.473,56.602 C201.265,56.602 201.892,56.338 202.354,55.81 C202.816,55.282 203.069,54.534 203.113,53.566 L203.113,53.566 L205.093,28.354 C205.225,26.726 204.884,25.417 204.07,24.427 C203.256,23.437 202.057,22.942 200.473,22.942 C198.845,22.942 197.613,23.437 196.777,24.427 C195.941,25.417 195.589,26.726 195.721,28.354 L195.721,28.354 L197.701,53.566 C197.789,54.534 198.064,55.282 198.526,55.81 C198.988,56.338 199.637,56.602 200.473,56.602 Z M200.473,70.33 C202.013,70.33 203.212,69.868 204.07,68.944 C204.928,68.02 205.357,66.832 205.357,65.38 C205.357,63.972 204.928,62.817 204.07,61.915 C203.212,61.013 202.013,60.562 200.473,60.562 C198.977,60.562 197.778,61.013 196.876,61.915 C195.974,62.817 195.523,63.972 195.523,65.38 C195.523,66.832 195.974,68.02 196.876,68.944 C197.778,69.868 198.977,70.33 200.473,70.33 Z" id="up!" fill="#FFFFFF" fill-rule="nonzero"></path>
    </g>
    <style xmlns="http://www.w3.org/2000/svg">
        .letter {
        fill: #02303A;
        }
        @media (prefers-color-scheme: dark) {
        path {
        fill: #fff;
        }
        }
    </style>
</svg>